<?xml version="1.0" standalone="no"?>
<!DOCTYPE svg PUBLIC "-//W3C//DTD SVG 20010904//EN"
 "http://www.w3.org/TR/2001/REC-SVG-20010904/DTD/svg10.dtd">
<svg version="1.0" xmlns="http://www.w3.org/2000/svg"
 width="421.000000pt" height="421.000000pt" viewBox="0 0 421.000000 421.000000"
 preserveAspectRatio="xMidYMid meet">

<g transform="translate(0.000000,421.000000) scale(0.100000,-0.100000)"
fill="#e9ba2a" stroke="none">
<path d="M1 2918 c0 -1282 0 -1292 19 -1222 101 385 506 591 1314 669 88 8
166 15 175 15 9 0 25 16 36 36 28 52 88 102 171 141 l74 35 0 231 0 230 -26
-24 c-38 -35 -104 -34 -141 4 l-28 27 -3 233 c-2 140 1 244 7 260 14 36 57 62
104 62 31 0 45 -7 66 -31 15 -16 47 -36 71 -43 151 -45 275 -164 332 -317 20
-55 22 -81 26 -350 l4 -291 38 -12 c62 -18 156 -87 189 -139 44 -69 48 -72 86
-72 60 0 326 -50 483 -90 180 -47 306 -92 459 -165 l113 -54 171 150 172 149
135 0 c123 0 134 -1 130 -17 -3 -10 -58 -154 -122 -321 l-117 -304 19 -51 c11
-29 22 -69 26 -89 5 -28 12 -38 26 -38 28 0 33 29 26 173 -7 138 -2 167 37
191 24 15 84 -18 114 -63 l23 -34 0 1207 0 1206 -2105 0 -2105 0 1 -1292z"/>
<path d="M898 1680 c-82 -45 -132 -151 -110 -234 43 -153 224 -214 338 -114
106 93 99 253 -14 333 -56 39 -157 46 -214 15z"/>
<path d="M1898 1680 c-48 -26 -93 -82 -108 -135 -41 -148 107 -296 255 -255
55 15 110 61 136 113 31 60 24 152 -16 209 -59 82 -180 113 -267 68z"/>
<path d="M2898 1680 c-76 -41 -128 -139 -113 -217 29 -163 214 -234 339 -131
57 47 79 99 74 174 -5 78 -41 136 -107 171 -56 29 -140 31 -193 3z"/>
<path d="M4173 1594 l-31 -64 34 0 34 0 0 65 c0 36 -1 65 -2 64 -2 0 -17 -29
-35 -65z"/>
<path d="M3990 1444 c0 -8 -11 -50 -25 -91 l-26 -76 121 -313 c66 -172 120
-316 120 -319 0 -3 -62 -5 -137 -4 l-138 0 -168 147 -168 147 -105 -52 c-433
-213 -1044 -312 -1750 -284 -404 16 -638 42 -883 97 -469 105 -744 308 -815
599 -13 54 -14 -4 -15 -617 l-1 -678 2105 0 2105 0 0 598 c0 589 0 597 -19
566 -27 -44 -69 -74 -103 -74 -24 0 -32 6 -44 37 -13 30 -15 59 -9 154 8 136
2 179 -26 179 -11 0 -19 -7 -19 -16z"/>
<path d="M4140 1454 c0 -3 9 -19 20 -35 12 -15 27 -45 35 -66 l14 -38 0 73 1
72 -35 0 c-19 0 -35 -3 -35 -6z"/>
</g>
</svg>
